:SAMPLES-PER-SECOND 30
:FULLY-SPECIFIED
:DEGREES
221
root  -15.3655 34.7404 -9.35842 -172.513 1.92593 179.663
RightUpLeg  -5.71922 -7.81341 1.00992
RightLeg  6.01517 1.21204 0.0504251
RightFoot  2.67601 0.00696116 0.182433
RightToes  -21.7842 -0.0933388 -0.195275
Spine  -3.02795 0.262966 -0.200097
Spine1  -6.11529 0.585388 0.255457
HEad  -64.4631 -1.63445 6.12222
LeftShoulder1  -1.94126e-019 -3.10601e-018 -2.51263e-017
LeftArm  -13.6866 26.2475 -81.0651
LeftForeArm  30.0552 -19.1089 -3.29826
LeftHand  -0.439404 -1.76934 7.44233
RightShoulder  -4.96962e-017 0 -2.36833e-017
RightArm  -26.9159 -24.6745 78.6682
RightForeArm  58.1763 12.25 1.44943
RightHand  -0.536443 -0.612641 -13.0223
LeftUpLeg  -5.46706 -6.26602 -1.74408
LeftLeg  7.31754 15.4085 0.966218
LeftFoot  1.33512 -0.00305761 0.516832
LeftToes  -12.4549 1.31424e-006 1.14295e-007
222
root  -15.3745 34.7385 -9.29769 -172.433 1.88011 179.749
RightUpLeg  -6.02081 -7.57638 1.10953
RightLeg  6.26116 0.934598 0.0431596
RightFoot  2.69001 0.00795571 0.169729
RightToes  -22.1233 -0.0936161 -0.195385
Spine  -2.99871 0.338335 -0.203856
Spine1  -6.05788 0.733538 0.239212
HEad  -64.1979 -1.62472 6.02198
LeftShoulder1  -1.94126e-019 -3.10601e-018 -2.51263e-017
LeftArm  -13.7713 26.1412 -81.0569
LeftForeArm  29.9498 -19.4702 -3.35044
LeftHand  -0.441157 -1.74053 7.36615
RightShoulder  -4.96962e-017 0 -2.36833e-017
RightArm  -27.1518 -24.708 78.6693
RightForeArm  58.5213 12.0776 1.46356
RightHand  -0.538591 -0.548002 -13.0052
LeftUpLeg  -5.62708 -6.1014 -1.63879
LeftLeg  7.2779 15.1903 0.94243
LeftFoot  1.34696 -0.00225481 0.513559
LeftToes  -12.7804 1.31424e-006 1.14295e-007
223
root  -15.3798 34.7305 -9.24057 -172.275 1.76515 179.767
RightUpLeg  -6.10659 -8.31156 1.13949
RightLeg  5.9677 1.61203 0.0653775
RightFoot  2.83124 0.00584401 0.201002
RightToes  -22.3507 -0.093941 -0.195449
Spine  -3.00017 0.361319 -0.212454
Spine1  -6.06061 0.777248 0.219544
HEad  -64.0201 -1.49936 5.8663
LeftShoulder1  -1.94126e-019 -3.10601e-018 -2.51263e-017
LeftArm  -13.7704 26.2089 -81.0762
LeftForeArm  29.8982 -19.752 -3.38226
LeftHand  -0.441111 -1.71488 7.38517
RightShoulder  -4.96962e-017 0 -2.36833e-017
RightArm  -27.2853 -24.7391 78.6404
RightForeArm  58.8975 12.0004 1.46874
RightHand  -0.539921 -0.523538 -13.0044
LeftUpLeg  -5.85954 -6.00079 -1.58781
LeftLeg  7.222 14.9717 0.914679
LeftFoot  1.34161 -0.00131941 0.506118
LeftToes  -13.0568 1.31424e-006 1.14295e-007
224
root  -15.3865 34.7326 -9.18873 -172.289 1.77388 179.792
RightUpLeg  -6.36507 -7.62628 1.17828
RightLeg  6.33131 0.927338 0.0439739
RightFoot  2.79565 0.00810141 0.169462
RightToes  -22.4787 -0.0943026 -0.195523
Spine  -2.95239 0.384192 -0.215464
Spine1  -5.96713 0.822634 0.208649
HEad  -63.9773 -1.24277 5.63013
LeftShoulder1  -1.94126e-019 -3.10601e-018 -2.51263e-017
LeftArm  -13.7575 26.3097 -81.132
LeftForeArm  30.1654 -19.7364 -3.36048
LeftHand  -0.439503 -1.60071 7.47019
RightShoulder  -4.96962e-017 0 -2.36833e-017
RightArm  -27.3396 -24.6677 78.6129
RightForeArm  59.1899 11.9645 1.47078
RightHand  -0.542079 -0.522475 -12.9777
LeftUpLeg  -5.93477 -6.04706 -1.56364
LeftLeg  7.24015 15.0315 0.922972
LeftFoot  1.41581 -0.00233222 0.527143
LeftToes  -13.1656 1.31424e-006 1.14295e-007
225
root  -15.3933 34.7332 -9.14035 -172.276 1.74361 179.792
RightUpLeg  -6.52155 -7.64434 1.18447
RightLeg  6.46469 0.919181 0.0457471
RightFoot  2.78009 0.00817185 0.168805
RightToes  -22.3979 -0.0946904 -0.195677
Spine  -2.92545 0.379035 -0.226281
Spine1  -5.91388 0.81187 0.186881
HEad  -64.1532 -0.980146 5.28349
LeftShoulder1  -1.94126e-019 -3.10601e-018 -2.51263e-017
LeftArm  -13.5693 26.4774 -81.2218
LeftForeArm  30.5223 -19.4886 -3.30961
LeftHand  -0.47114 -1.73564 7.85482
RightShoulder  -4.96962e-017 0 -2.36833e-017
RightArm  -27.4038 -24.5888 78.6
RightForeArm  59.2615 11.9592 1.4709
RightHand  -0.54516 -0.466465 -12.9314
LeftUpLeg  -6.05642 -6.07432 -1.5556
LeftLeg  7.30325 15.0068 0.93788
LeftFoot  1.40145 -0.00180086 0.522654
LeftToes  -13.1301 1.31424e-006 1.14295e-007
226
root  -15.3996 34.7331 -9.09868 -172.271 1.74316 179.79
RightUpLeg  -6.6612 -7.57508 1.18287
RightLeg  6.60053 0.855423 0.0446881
RightFoot  2.76007 0.00817652 0.168743
RightToes  -22.337 -0.0950936 -0.195901
Spine  -2.89893 0.362059 -0.232372
Spine1  -5.86155 0.77826 0.175673
HEad  -64.5752 -0.710425 4.95032
LeftShoulder1  -1.94126e-019 -3.10601e-018 -2.51263e-017
LeftArm  -13.3865 26.6674 -81.3065
LeftForeArm  30.8584 -19.0779 -3.23396
LeftHand  -0.47431 -1.86582 7.77436
RightShoulder  -4.96962e-017 0 -2.36833e-017
RightArm  -27.2503 -24.5578 78.5946
RightForeArm  59.2016 12.0932 1.45947
RightHand  -0.548693 -0.440678 -12.8648
LeftUpLeg  -6.13263 -6.05325 -1.5563
LeftLeg  7.30466 14.9845 0.936884
LeftFoot  1.4694 -0.00278055 0.54043
LeftToes  -13.2488 1.31424e-006 1.14295e-007
227
root  -15.4029 34.7327 -9.0574 -172.246 1.82225 179.781
RightUpLeg  -6.83597 -7.55137 1.17615
RightLeg  6.74771 0.929275 0.0508498
RightFoot  2.73912 0.00814559 0.168865
RightToes  -22.3464 -0.0955013 -0.196187
Spine  -2.88204 0.368406 -0.238595
Spine1  -5.82793 0.791185 0.164695
HEad  -64.9173 -0.587545 4.72223
LeftShoulder1  -1.94126e-019 -3.10601e-018 -2.51263e-017
LeftArm  -13.2008 26.7957 -81.3988
LeftForeArm  31.1288 -18.4337 -3.1286
LeftHand  -0.471109 -1.99416 7.59835
RightShoulder  -4.96962e-017 0 -2.36833e-017
RightArm  -26.8565 -24.5633 78.5758
RightForeArm  58.9563 12.2795 1.44281
RightHand  -0.549732 -0.408981 -12.8588
LeftUpLeg  -6.21906 -5.89752 -1.56155
LeftLeg  7.30134 14.9023 0.930995
LeftFoot  1.51081 -0.0032656 0.549593
LeftToes  -13.2618 1.31424e-006 1.14295e-007
228
root  -15.4035 34.7321 -9.01789 -172.235 1.96638 179.779
RightUpLeg  -6.9982 -7.42684 1.18062
RightLeg  6.89142 0.960204 0.054925
RightFoot  2.73461 0.008053 0.169564
RightToes  -22.3596 -0.095903 -0.196528
Spine  -2.88366 0.386384 -0.246948
Spine1  -5.83174 0.82814 0.148829
HEad  -65.0798 -0.534508 4.67642
LeftShoulder1  -1.94126e-019 -3.10601e-018 -2.51263e-017
LeftArm  -13.2163 26.9207 -81.517
LeftForeArm  31.5153 -17.5885 -2.99518
LeftHand  -0.485411 -2.18004 7.64459
RightShoulder  -4.96962e-017 0 -2.36833e-017
RightArm  -26.393 -24.5538 78.5422
RightForeArm  58.8289 12.3847 1.4328
RightHand  -0.55221 -0.390093 -12.8059
LeftUpLeg  -6.28565 -5.81282 -1.5618
LeftLeg  7.3118 14.9463 0.936395
LeftFoot  1.53826 -0.00378646 0.558684
LeftToes  -13.3274 1.31424e-006 1.14295e-007
229
root  -15.3985 34.7317 -8.98233 -172.218 2.15919 179.78
RightUpLeg  -7.14344 -7.22969 1.18924
RightLeg  6.99662 0.963517 0.0568879
RightFoot  2.72776 0.00787282 0.171231
RightToes  -22.3853 -0.0962878 -0.196913
Spine  -2.89298 0.413354 -0.263615
Spine1  -5.85139 0.883376 0.115122
HEad  -65.0965 -0.53522 4.81787
LeftShoulder1  -1.94126e-019 -3.10601e-018 -2.51263e-017
LeftArm  -13.3135 27.0702 -81.6032
LeftForeArm  31.6548 -16.8851 -2.88226
LeftHand  -0.477358 -2.08226 7.61234
RightShoulder  -4.96962e-017 0 -2.36833e-017
RightArm  -26.1244 -24.4405 78.5055
RightForeArm  59.0614 12.3219 1.43804
RightHand  -0.55497 -0.316303 -12.7445
LeftUpLeg  -6.34157 -5.73438 -1.56293
LeftLeg  7.31778 15.0502 0.944316
LeftFoot  1.55402 -0.0042383 0.56637
LeftToes  -13.3146 1.31424e-006 1.14295e-007
230
root  -15.389 34.7316 -8.94695 -172.22 2.36258 179.79
RightUpLeg  -7.28371 -7.13071 1.21264
RightLeg  7.12303 1.05672 0.0646251
RightFoot  2.72993 0.00751374 0.175191
RightToes  -22.3612 -0.0966451 -0.197335
Spine  -2.90795 0.449315 -0.27802
Spine1  -5.88316 0.957778 0.0830852
HEad  -64.9849 -0.612281 4.99145
LeftShoulder1  -1.94126e-019 -3.10601e-018 -2.51263e-017
LeftArm  -13.4737 27.1755 -81.7064
LeftForeArm  31.7339 -16.1527 -2.76716
LeftHand  -0.473237 -1.87305 7.75001
RightShoulder  -4.96962e-017 0 -2.36833e-017
RightArm  -26.1213 -24.3109 78.4623
RightForeArm  59.1084 12.2403 1.446
RightHand  -0.5575 -0.325182 -12.6669
LeftUpLeg  -6.40928 -5.61259 -1.54816
LeftLeg  7.38612 15.1195 0.966451
LeftFoot  1.55225 -0.00431057 0.568119
LeftToes  -13.3481 1.31424e-006 1.14295e-007
231
root  -15.3775 34.7322 -8.91463 -172.225 2.50912 179.798
RightUpLeg  -7.35597 -7.12965 1.23903
RightLeg  7.13354 1.1819 0.0723672
RightFoot  2.80582 0.00694287 0.181935
RightToes  -22.5081 -0.0969641 -0.197786
Spine  -2.91881 0.478019 -0.292512
Spine1  -5.90614 1.01715 0.0517498
HEad  -64.7756 -0.69594 5.28185
LeftShoulder1  -1.94126e-019 -3.10601e-018 -2.51263e-017
LeftArm  -13.5523 27.2548 -81.7423
LeftForeArm  32.0989 -15.5095 -2.66299
LeftHand  -0.489641 -2.19302 7.69718
RightShoulder  -4.96962e-017 0 -2.36833e-017
RightArm  -26.216 -24.2248 78.4239
RightForeArm  59.0697 12.2472 1.44557
RightHand  -0.553711 -0.397969 -12.7371
LeftUpLeg  -6.45509 -5.55791 -1.52842
LeftLeg  7.41697 15.1976 0.979445
LeftFoot  1.57975 -0.0048917 0.578035
LeftToes  -13.366 1.31424e-006 1.14295e-007
232
root  -15.3678 34.7343 -8.88782 -172.236 2.58076 179.803
RightUpLeg  -7.38165 -7.16725 1.25891
RightLeg  7.10518 1.3017 0.0789436
RightFoot  2.85151 0.00639557 0.18812
RightToes  -22.4947 -0.097234 -0.198256
Spine  -2.92633 0.49229 -0.300898
Spine1  -5.9219 1.04734 0.0333102
HEad  -64.5606 -0.768133 5.45118
LeftShoulder1  -1.94126e-019 -3.10601e-018 -2.51263e-017
LeftArm  -13.5394 27.3118 -81.7944
LeftForeArm  32.1766 -15.2543 -2.6221
LeftHand  -0.488181 -2.06247 7.79969
RightShoulder  -4.96962e-017 0 -2.36833e-017
RightArm  -26.2954 -24.1897 78.3913
RightForeArm  59.0162 12.3318 1.43748
RightHand  -0.55421 -0.41009 -12.6886
LeftUpLeg  -6.48797 -5.4914 -1.50725
LeftLeg  7.4301 15.2032 0.983252
LeftFoot  1.61349 -0.00540072 0.587384
LeftToes  -13.3999 1.31424e-006 1.14295e-007
233
root  -15.3533 34.7376 -8.85377 -172.249 2.63962 179.808
RightUpLeg  -7.39484 -7.23757 1.28927
RightLeg  7.03748 1.43173 0.0850205
RightFoot  2.93127 0.00573016 0.195791
RightToes  -22.5112 -0.0974442 -0.198739
Spine  -2.92966 0.497876 -0.308962
Spine1  -5.92922 1.06051 0.0160448
HEad  -64.3319 -0.819323 5.6271
LeftShoulder1  -1.94126e-019 -3.10601e-018 -2.51263e-017
LeftArm  -13.4328 27.3976 -81.8071
LeftForeArm  32.4529 -15.1015 -2.59436
LeftHand  -0.487915 -2.17783 7.74212
RightShoulder  -4.96962e-017 0 -2.36833e-017
RightArm  -26.243 -24.1737 78.3512
RightForeArm  58.8378 12.5115 1.41938
RightHand  -0.552475 -0.352269 -12.6949
LeftUpLeg  -6.51577 -5.45491 -1.4776
LeftLeg  7.41561 15.2131 0.980063
LeftFoot  1.66895 -0.00624516 0.602797
LeftToes  -13.4505 1.31424e-006 1.14295e-007
234
root  -15.3395 34.7398 -8.81762 -172.266 2.65904 179.814
RightUpLeg  -7.41643 -7.27249 1.31879
RightLeg  6.99346 1.49613 0.087641
RightFoot  2.99209 0.00527713 0.200246
RightToes  -22.6431 -0.0975839 -0.199224
Spine  -2.92407 0.48997 -0.31467
Spine1  -5.91871 1.04663 0.00411265
HEad  -64.1396 -0.811185 5.76781
LeftShoulder1  -1.94126e-019 -3.10601e-018 -2.51263e-017
LeftArm  -13.2229 27.5071 -81.8107
LeftForeArm  32.548 -15.2145 -2.60531
LeftHand  -0.485089 -2.21628 7.67936
RightShoulder  -4.96962e-017 0 -2.36833e-017
RightArm  -26.0155 -24.1697 78.3188
RightForeArm  58.599 12.7096 1.39845
RightHand  -0.552495 -0.308219 -12.6364
LeftUpLeg  -6.53644 -5.33938 -1.44356
LeftLeg  7.37533 15.1255 0.964002
LeftFoot  1.72589 -0.00683594 0.615413
LeftToes  -13.577 1.31424e-006 1.14295e-007
235
root  -15.3268 34.7426 -8.77992 -172.288 2.6597 179.825
RightUpLeg  -7.44224 -7.25496 1.35228
RightLeg  6.96974 1.48232 0.086226
RightFoot  3.05829 0.00505896 0.201185
RightToes  -22.8052 -0.0976423 -0.199704
Spine  -2.92338 0.479098 -0.320756
Spine1  -5.91765 1.02589 -0.00798633
HEad  -63.9157 -0.852419 5.87069
LeftShoulder1  -1.94126e-019 -3.10601e-018 -2.51263e-017
LeftArm  -12.8715 27.6127 -81.7783
LeftForeArm  32.5249 -15.4793 -2.64091
LeftHand  -0.486194 -2.32241 7.52542
RightShoulder  -4.96962e-017 0 -2.36833e-017
RightArm  -25.6352 -24.1957 78.2894
RightForeArm  58.3054 12.8556 1.38311
RightHand  -0.548278 -0.333274 -12.6001
LeftUpLeg  -6.52883 -5.28312 -1.40711
LeftLeg  7.28489 15.0683 0.936846
LeftFoot  1.78222 -0.00737069 0.628619
LeftToes  -13.6846 1.31424e-006 1.14295e-007
